<svg width="368" height="556" viewBox="0 0 368 556" fill="none" xmlns="http://www.w3.org/2000/svg">
<g opacity="0.6">
<path d="M14.5345 529.17L43.767 478.661L72.9995 529.17H14.5345Z" fill="url(#paint0_linear)" stroke="white" stroke-width="10"/>
<path d="M295 529.17L324.233 478.661L353.465 529.17H295Z" fill="url(#paint1_linear)" stroke="white" stroke-width="10"/>
<path d="M130.258 467.085L130.258 525.407L79.6259 496.246L130.258 467.085Z" fill="url(#paint2_linear)" stroke="white" stroke-width="10"/>
<path d="M154.767 529.17L184 478.661L213.232 529.17H154.767Z" fill="url(#paint3_linear)" stroke="white" stroke-width="10"/>
<path d="M270.491 467.085L270.491 525.407L219.859 496.246L270.491 467.085Z" fill="url(#paint4_linear)" stroke="white" stroke-width="10"/>
<path opacity="0.85" d="M353.465 383.24L324.233 433.749L295.001 383.24H353.465Z" fill="url(#paint5_linear)" stroke="white" stroke-width="10"/>
<path opacity="0.85" d="M72.9997 383.24L43.7672 433.749L14.5347 383.24H72.9997Z" fill="url(#paint6_linear)" stroke="white" stroke-width="10"/>
<path opacity="0.85" d="M237.742 445.325L237.742 387.003L288.374 416.164L237.742 445.325Z" fill="url(#paint7_linear)" stroke="white" stroke-width="10"/>
<path opacity="0.85" d="M213.233 383.24L184 433.749L154.768 383.24H213.233Z" fill="url(#paint8_linear)" stroke="white" stroke-width="10"/>
<path opacity="0.85" d="M97.509 445.325L97.509 387.003L148.141 416.164L97.509 445.325Z" fill="url(#paint9_linear)" stroke="white" stroke-width="10"/>
<path opacity="0.68" d="M14.5345 350.965L43.767 300.456L72.9995 350.965H14.5345Z" fill="url(#paint10_linear)" stroke="white" stroke-width="10"/>
<path opacity="0.68" d="M295 350.965L324.233 300.456L353.465 350.965H295Z" fill="url(#paint11_linear)" stroke="white" stroke-width="10"/>
<path opacity="0.68" d="M130.258 288.88L130.258 347.202L79.6259 318.041L130.258 288.88Z" fill="url(#paint12_linear)" stroke="white" stroke-width="10"/>
<path opacity="0.68" d="M154.535 350.965L183.767 300.456L212.999 350.965H154.535Z" fill="url(#paint13_linear)" stroke="white" stroke-width="10"/>
<path opacity="0.68" d="M270.491 288.88L270.491 347.202L219.859 318.041L270.491 288.88Z" fill="url(#paint14_linear)" stroke="white" stroke-width="10"/>
<path opacity="0.51" d="M353.465 205.035L324.233 255.544L295.001 205.035L353.465 205.035Z" fill="url(#paint15_linear)" stroke="white" stroke-width="10"/>
<path opacity="0.51" d="M72.9997 205.035L43.7672 255.544L14.5347 205.035L72.9997 205.035Z" fill="url(#paint16_linear)" stroke="white" stroke-width="10"/>
<path opacity="0.51" d="M237.742 267.12L237.742 208.798L288.374 237.959L237.742 267.12Z" fill="url(#paint17_linear)" stroke="white" stroke-width="10"/>
<path opacity="0.51" d="M213.233 205.035L184 255.544L154.768 205.035L213.233 205.035Z" fill="url(#paint18_linear)" stroke="white" stroke-width="10"/>
<path opacity="0.51" d="M97.509 267.12L97.509 208.798L148.141 237.959L97.509 267.12Z" fill="url(#paint19_linear)" stroke="white" stroke-width="10"/>
<path opacity="0.34" d="M14.5345 172.76L43.767 122.251L72.9995 172.76L14.5345 172.76Z" fill="url(#paint20_linear)" stroke="white" stroke-width="10"/>
<path opacity="0.34" d="M295 172.76L324.233 122.251L353.465 172.76L295 172.76Z" fill="url(#paint21_linear)" stroke="white" stroke-width="10"/>
<path opacity="0.34" d="M130.258 110.675L130.258 168.997L79.6259 139.836L130.258 110.675Z" fill="url(#paint22_linear)" stroke="white" stroke-width="10"/>
<path opacity="0.34" d="M154.767 172.76L184 122.251L213.232 172.76L154.767 172.76Z" fill="url(#paint23_linear)" stroke="white" stroke-width="10"/>
<path opacity="0.34" d="M270.491 110.675L270.491 168.997L219.859 139.836L270.491 110.675Z" fill="url(#paint24_linear)" stroke="white" stroke-width="10"/>
<path opacity="0.17" d="M353.465 26.8301L324.233 77.3388L295.001 26.8301L353.465 26.8301Z" fill="url(#paint25_linear)" stroke="white" stroke-width="10"/>
<path opacity="0.17" d="M72.9997 26.8301L43.7672 77.3388L14.5347 26.8301L72.9997 26.8301Z" fill="url(#paint26_linear)" stroke="white" stroke-width="10"/>
<path opacity="0.17" d="M237.742 88.915L237.742 30.5926L288.374 59.7538L237.742 88.915Z" fill="url(#paint27_linear)" stroke="white" stroke-width="10"/>
<path opacity="0.17" d="M213.233 26.8301L184 77.3388L154.768 26.8301L213.233 26.8301Z" fill="url(#paint28_linear)" stroke="white" stroke-width="10"/>
<path opacity="0.17" d="M97.509 88.915L97.509 30.5926L148.141 59.7538L97.509 88.915Z" fill="url(#paint29_linear)" stroke="white" stroke-width="10"/>
</g>
<defs>
<linearGradient id="paint0_linear" x1="43.767" y1="468.679" x2="43.767" y2="556" gradientUnits="userSpaceOnUse">
<stop stop-color="white"/>
<stop offset="1" stop-color="white" stop-opacity="0"/>
</linearGradient>
<linearGradient id="paint1_linear" x1="324.233" y1="468.679" x2="324.233" y2="556" gradientUnits="userSpaceOnUse">
<stop stop-color="white"/>
<stop offset="1" stop-color="white" stop-opacity="0"/>
</linearGradient>
<linearGradient id="paint2_linear" x1="135.263" y1="534.054" x2="91.6558" y2="458.34" gradientUnits="userSpaceOnUse">
<stop stop-color="white"/>
<stop offset="1" stop-color="white" stop-opacity="0"/>
</linearGradient>
<linearGradient id="paint3_linear" x1="184" y1="468.679" x2="184" y2="556" gradientUnits="userSpaceOnUse">
<stop stop-color="white"/>
<stop offset="1" stop-color="white" stop-opacity="0"/>
</linearGradient>
<linearGradient id="paint4_linear" x1="275.496" y1="534.054" x2="231.889" y2="458.34" gradientUnits="userSpaceOnUse">
<stop stop-color="white"/>
<stop offset="1" stop-color="white" stop-opacity="0"/>
</linearGradient>
<linearGradient id="paint5_linear" x1="324.233" y1="443.731" x2="324.233" y2="356.41" gradientUnits="userSpaceOnUse">
<stop stop-color="white"/>
<stop offset="1" stop-color="white" stop-opacity="0"/>
</linearGradient>
<linearGradient id="paint6_linear" x1="43.7672" y1="443.731" x2="43.7672" y2="356.41" gradientUnits="userSpaceOnUse">
<stop stop-color="white"/>
<stop offset="1" stop-color="white" stop-opacity="0"/>
</linearGradient>
<linearGradient id="paint7_linear" x1="232.737" y1="378.356" x2="276.344" y2="454.07" gradientUnits="userSpaceOnUse">
<stop stop-color="white"/>
<stop offset="1" stop-color="white" stop-opacity="0"/>
</linearGradient>
<linearGradient id="paint8_linear" x1="184" y1="443.731" x2="184" y2="356.41" gradientUnits="userSpaceOnUse">
<stop stop-color="white"/>
<stop offset="1" stop-color="white" stop-opacity="0"/>
</linearGradient>
<linearGradient id="paint9_linear" x1="92.5044" y1="378.356" x2="136.111" y2="454.07" gradientUnits="userSpaceOnUse">
<stop stop-color="white"/>
<stop offset="1" stop-color="white" stop-opacity="0"/>
</linearGradient>
<linearGradient id="paint10_linear" x1="43.767" y1="290.474" x2="43.767" y2="377.795" gradientUnits="userSpaceOnUse">
<stop stop-color="white"/>
<stop offset="1" stop-color="white" stop-opacity="0"/>
</linearGradient>
<linearGradient id="paint11_linear" x1="324.233" y1="290.474" x2="324.233" y2="377.795" gradientUnits="userSpaceOnUse">
<stop stop-color="white"/>
<stop offset="1" stop-color="white" stop-opacity="0"/>
</linearGradient>
<linearGradient id="paint12_linear" x1="135.263" y1="355.849" x2="91.6558" y2="280.135" gradientUnits="userSpaceOnUse">
<stop stop-color="white"/>
<stop offset="1" stop-color="white" stop-opacity="0"/>
</linearGradient>
<linearGradient id="paint13_linear" x1="183.767" y1="290.474" x2="183.767" y2="377.795" gradientUnits="userSpaceOnUse">
<stop stop-color="white"/>
<stop offset="1" stop-color="white" stop-opacity="0"/>
</linearGradient>
<linearGradient id="paint14_linear" x1="275.496" y1="355.849" x2="231.889" y2="280.135" gradientUnits="userSpaceOnUse">
<stop stop-color="white"/>
<stop offset="1" stop-color="white" stop-opacity="0"/>
</linearGradient>
<linearGradient id="paint15_linear" x1="324.233" y1="265.526" x2="324.233" y2="178.205" gradientUnits="userSpaceOnUse">
<stop stop-color="white"/>
<stop offset="1" stop-color="white" stop-opacity="0"/>
</linearGradient>
<linearGradient id="paint16_linear" x1="43.7672" y1="265.526" x2="43.7672" y2="178.205" gradientUnits="userSpaceOnUse">
<stop stop-color="white"/>
<stop offset="1" stop-color="white" stop-opacity="0"/>
</linearGradient>
<linearGradient id="paint17_linear" x1="232.737" y1="200.151" x2="276.344" y2="275.865" gradientUnits="userSpaceOnUse">
<stop stop-color="white"/>
<stop offset="1" stop-color="white" stop-opacity="0"/>
</linearGradient>
<linearGradient id="paint18_linear" x1="184" y1="265.526" x2="184" y2="178.205" gradientUnits="userSpaceOnUse">
<stop stop-color="white"/>
<stop offset="1" stop-color="white" stop-opacity="0"/>
</linearGradient>
<linearGradient id="paint19_linear" x1="92.5044" y1="200.151" x2="136.111" y2="275.865" gradientUnits="userSpaceOnUse">
<stop stop-color="white"/>
<stop offset="1" stop-color="white" stop-opacity="0"/>
</linearGradient>
<linearGradient id="paint20_linear" x1="43.767" y1="112.269" x2="43.767" y2="199.59" gradientUnits="userSpaceOnUse">
<stop stop-color="white"/>
<stop offset="1" stop-color="white" stop-opacity="0"/>
</linearGradient>
<linearGradient id="paint21_linear" x1="324.233" y1="112.269" x2="324.233" y2="199.59" gradientUnits="userSpaceOnUse">
<stop stop-color="white"/>
<stop offset="1" stop-color="white" stop-opacity="0"/>
</linearGradient>
<linearGradient id="paint22_linear" x1="135.263" y1="177.644" x2="91.6558" y2="101.93" gradientUnits="userSpaceOnUse">
<stop stop-color="white"/>
<stop offset="1" stop-color="white" stop-opacity="0"/>
</linearGradient>
<linearGradient id="paint23_linear" x1="184" y1="112.269" x2="184" y2="199.59" gradientUnits="userSpaceOnUse">
<stop stop-color="white"/>
<stop offset="1" stop-color="white" stop-opacity="0"/>
</linearGradient>
<linearGradient id="paint24_linear" x1="275.496" y1="177.644" x2="231.889" y2="101.93" gradientUnits="userSpaceOnUse">
<stop stop-color="white"/>
<stop offset="1" stop-color="white" stop-opacity="0"/>
</linearGradient>
<linearGradient id="paint25_linear" x1="324.233" y1="87.3205" x2="324.233" y2="0" gradientUnits="userSpaceOnUse">
<stop stop-color="white"/>
<stop offset="1" stop-color="white" stop-opacity="0"/>
</linearGradient>
<linearGradient id="paint26_linear" x1="43.7672" y1="87.3205" x2="43.7672" y2="0" gradientUnits="userSpaceOnUse">
<stop stop-color="white"/>
<stop offset="1" stop-color="white" stop-opacity="0"/>
</linearGradient>
<linearGradient id="paint27_linear" x1="232.737" y1="21.9455" x2="276.344" y2="97.6595" gradientUnits="userSpaceOnUse">
<stop stop-color="white"/>
<stop offset="1" stop-color="white" stop-opacity="0"/>
</linearGradient>
<linearGradient id="paint28_linear" x1="184" y1="87.3205" x2="184" y2="0" gradientUnits="userSpaceOnUse">
<stop stop-color="white"/>
<stop offset="1" stop-color="white" stop-opacity="0"/>
</linearGradient>
<linearGradient id="paint29_linear" x1="92.5044" y1="21.9455" x2="136.111" y2="97.6595" gradientUnits="userSpaceOnUse">
<stop stop-color="white"/>
<stop offset="1" stop-color="white" stop-opacity="0"/>
</linearGradient>
</defs>
</svg>
